<svg width="1377" height="1358" viewBox="0 0 1377 1358" fill="none" xmlns="http://www.w3.org/2000/svg">
<path d="M1206.69 102.62L1274.27 170.2L1206.16 238.307L1240.48 272.627L1172.9 340.212L1206.69 374.002L1138.58 442.109L1172.37 475.899L1104.79 543.479L1002.89 441.581L799.096 645.378L731.515 577.798L935.313 374L833.414 272.101L900.994 204.521L934.785 238.311L1002.89 170.204L1037.21 204.521L1104.79 136.936L1138.58 170.727L1206.69 102.62Z" fill="#38761C"/>
<path d="M169.481 1255.38L101.901 1187.8L170.007 1119.69L135.687 1085.37L203.272 1017.79L169.481 983.998L237.588 915.891L203.798 882.101L271.378 814.521L373.277 916.419L577.075 712.622L644.655 780.202L440.858 984L542.756 1085.9L475.176 1153.48L441.386 1119.69L373.279 1187.8L338.963 1153.48L271.378 1221.06L237.588 1187.27L169.481 1255.38Z" fill="#38761C"/>
<path d="M101.897 170.204L169.477 102.624L237.584 170.73L271.904 136.41L339.489 203.995L373.279 170.204L441.385 238.311L475.176 204.521L542.756 272.101L440.857 374L644.655 577.798L577.075 645.378L373.277 441.581L271.378 543.479L203.798 475.899L237.588 442.109L169.481 374.002L203.798 339.685L136.213 272.101L170.004 238.311L101.897 170.204Z" fill="#38761C"/>
<path d="M1274.27 1187.8L1206.69 1255.38L1138.59 1187.27L1104.27 1221.59L1036.68 1154.01L1002.89 1187.8L934.785 1119.69L900.995 1153.48L833.414 1085.9L935.313 984L731.515 780.202L799.096 712.622L1002.89 916.42L1104.79 814.521L1172.37 882.101L1138.58 915.892L1206.69 983.998L1172.37 1018.31L1239.96 1085.9L1206.17 1119.69L1274.27 1187.8Z" fill="#38761C"/>
</svg>
