<svg width="1377" height="1357" viewBox="0 0 1377 1357" fill="none" xmlns="http://www.w3.org/2000/svg">
<path d="M799.098 644.657L731.517 577.076L799.624 508.97L765.304 474.65L832.888 407.065L799.098 373.275L867.204 305.168L833.414 271.378L900.995 203.798L1002.89 305.696L1206.69 101.899L1274.27 169.479L1070.47 373.277L1172.37 475.176L1104.79 542.756L1071 508.966L1002.9 577.073L968.579 542.756L900.995 610.341L867.204 576.55L799.098 644.657Z" fill="#7A0303"/>
<path d="M577.073 711.897L644.653 779.477L576.547 847.584L610.867 881.904L543.282 949.489L577.073 983.279L508.966 1051.39L542.756 1085.18L475.176 1152.76L373.277 1050.86L169.479 1254.66L101.899 1187.07L305.696 983.277L203.798 881.378L271.378 813.798L305.168 847.588L373.275 779.481L407.591 813.798L475.176 746.213L508.966 780.004L577.073 711.897Z" fill="#7A0303"/>
<path d="M644.657 577.073L577.077 644.653L508.97 576.547L474.65 610.867L407.065 543.282L373.275 577.073L305.168 508.966L271.378 542.756L203.798 475.176L305.696 373.277L101.899 169.479L169.479 101.899L373.277 305.696L475.176 203.798L542.756 271.378L508.966 305.168L577.073 373.275L542.756 407.591L610.341 475.176L576.55 508.966L644.657 577.073Z" fill="#7A0303"/>
<path d="M731.513 779.481L799.094 711.901L867.201 780.007L901.521 745.687L969.105 813.272L1002.9 779.481L1071 847.588L1104.79 813.798L1172.37 881.378L1070.47 983.277L1274.27 1187.07L1206.69 1254.66L1002.89 1050.86L900.995 1152.76L833.414 1085.18L867.204 1051.39L799.098 983.279L833.414 948.963L765.83 881.378L799.62 847.588L731.513 779.481Z" fill="#7A0303"/>
</svg>
